<svg width="18" height="19" viewBox="0 0 18 19" fill="none" xmlns="http://www.w3.org/2000/svg">
<path fill-rule="evenodd" clip-rule="evenodd" d="M8.83269 3.2793C7.49801 3.2793 6.41603 4.36128 6.41603 5.69596C6.41603 7.03065 7.49801 8.11263 8.83269 8.11263C10.1674 8.11263 11.2494 7.03065 11.2494 5.69596C11.2494 4.36128 10.1674 3.2793 8.83269 3.2793ZM3.91603 5.69596C3.91603 2.98056 6.11729 0.779297 8.83269 0.779297C11.5481 0.779297 13.7494 2.98056 13.7494 5.69596C13.7494 8.41136 11.5481 10.6126 8.83269 10.6126C6.11729 10.6126 3.91603 8.41136 3.91603 5.69596ZM3.74606 13.0825C5.23371 12.2263 7.02147 11.7793 8.8338 11.7793C10.6461 11.7793 12.4339 12.2263 13.9215 13.0825C15.4085 13.9382 16.5584 15.185 17.0944 16.6852C17.3266 17.3354 16.9879 18.0507 16.3378 18.2829C15.6877 18.5152 14.9724 18.1765 14.7401 17.5263C14.4405 16.6876 13.7491 15.8676 12.6746 15.2493C11.6008 14.6313 10.2501 14.2793 8.8338 14.2793C7.41749 14.2793 6.06683 14.6313 4.99304 15.2493C3.91852 15.8676 3.22712 16.6876 2.92747 17.5263C2.69521 18.1765 1.9799 18.5152 1.32979 18.2829C0.67968 18.0507 0.340946 17.3354 0.573209 16.6852C1.10919 15.185 2.25912 13.9382 3.74606 13.0825Z" fill="white"/>
</svg>
